Coordinates
version=1
nRows=14
nColumns=63
inDegrees=yes

Units are S.I. units (second, meters, Newtons, ...)
If the header above contains a line with 'inDegrees', this indicates whether rotational values are in degrees (yes) or radians (no).

endheader
time	pelvis_tilt	pelvis_list	pelvis_rotation	pelvis_tx	pelvis_ty	pelvis_tz	hip_flexion_r	hip_adduction_r	hip_rotation_r	knee_angle_r	knee_angle_r_beta	ankle_angle_r	subtalar_angle_r	mtp_angle_r	hip_flexion_l	hip_adduction_l	hip_rotation_l	knee_angle_l	knee_angle_l_beta	ankle_angle_l	subtalar_angle_l	mtp_angle_l	L5_S1_Flex_Ext	L5_S1_Lat_Bending	L5_S1_axial_rotation	L4_L5_Flex_Ext	L4_L5_Lat_Bending	L4_L5_axial_rotation	L3_L4_Flex_Ext	L3_L4_Lat_Bending	L3_L4_axial_rotation	L2_L3_Flex_Ext	L2_L3_Lat_Bending	L2_L3_axial_rotation	L1_L2_Flex_Ext	L1_L2_Lat_Bending	L1_L2_axial_rotation	L1_T12_Flex_Ext	L1_T12_Lat_Bending	L1_T12_axial_rotation	Abs_r3	Abs_r2	Abs_r1	Abs_t1	Abs_t2	neck_flexion	neck_bending	neck_rotation	arm_flex_r	arm_add_r	arm_rot_r	elbow_flex_r	pro_sup_r	wrist_flex_r	wrist_dev_r	arm_flex_l	arm_add_l	arm_rot_l	elbow_flex_l	pro_sup_l	wrist_flex_l	wrist_dev_l
1.157895	-3.075133	-3.268489	84.239998	0.262677	0.914581	0.679424	10.441636	-4.200293	-4.941428	15.670756	0.273506	40.098180	10.791689	0.000000	8.030786	3.331371	-4.605137	11.655793	0.203432	32.801269	-3.071786	0.000000	-0.002138	-0.775981	1.860739	-0.003971	-1.032054	1.977035	-0.003513	-1.886719	1.977035	-0.002444	-1.886719	1.628147	-0.001985	-1.582380	1.511850	-0.001222	-1.201994	1.395554	-0.015273	-8.778048	10.348871	0.000000	0.000000	18.133969	8.507389	-9.956405	-3.776415	-11.697931	-2.710876	108.998105	86.066302	-13.708053	16.528449	12.774394	-22.293658	40.639752	24.437465	71.615985	-15.475225	1.049949
1.175439	-2.968108	-3.233195	83.957178	0.262930	0.915205	0.678891	10.155738	-4.051641	-4.921048	15.086295	0.263306	39.920705	11.283055	0.000000	7.664779	3.273268	-4.194601	11.186213	0.195236	32.075406	-4.010931	0.000000	0.000790	-0.755742	1.904412	0.001468	-1.005137	2.023437	0.001299	-1.837512	2.023437	0.000903	-1.837512	1.666360	0.000734	-1.541110	1.547335	0.000452	-1.170645	1.428309	0.005646	-8.549107	10.591767	0.000000	0.000000	17.961712	8.520495	-10.047917	-3.257999	-11.778717	-4.116244	113.072499	85.733991	-13.999895	16.468079	11.718528	-22.760928	39.086229	24.965645	72.370194	-15.890115	-0.032437
1.192982	-2.871816	-3.204653	83.689404	0.263090	0.915783	0.678403	9.880679	-3.926337	-4.952348	14.504661	0.253154	39.742414	11.784507	0.000000	7.321151	3.238470	-3.689098	10.751205	0.187644	31.312839	-5.052991	0.000000	0.003981	-0.734165	1.932996	0.007393	-0.976439	2.053808	0.006540	-1.785048	2.053808	0.004550	-1.785048	1.691371	0.003697	-1.497109	1.570559	0.002275	-1.137221	1.449747	0.028436	-8.305018	10.750744	0.000000	0.000000	17.842386	8.485783	-10.020762	-2.425360	-11.926130	-5.350713	116.837658	85.162897	-13.972689	16.357855	10.618742	-23.165865	37.700715	25.550989	72.869726	-16.248613	-1.337611
1.210526	-2.775295	-3.180000	83.494600	0.263070	0.916305	0.677985	9.612982	-3.831183	-5.146207	13.951095	0.243493	39.570336	12.353062	0.000000	7.016930	3.226291	-3.019818	10.387127	0.181290	30.533053	-6.219226	0.000000	0.006521	-0.709995	1.931628	0.012110	-0.944293	2.052354	0.010713	-1.726281	2.052354	0.007453	-1.726281	1.690174	0.006055	-1.447821	1.569447	0.003726	-1.099782	1.448721	0.046579	-8.031600	10.743133	0.000000	0.000000	17.741442	8.437422	-9.821239	-1.251483	-12.193816	-6.262042	120.172128	84.553915	-13.706155	15.982967	9.526204	-23.490393	36.558235	26.097137	73.261608	-16.780597	-2.822782
1.228070	-2.685107	-3.150916	83.337397	0.262948	0.916768	0.677601	9.365497	-3.764735	-5.446894	13.467511	0.235052	39.417548	12.966366	0.000000	6.737217	3.234453	-2.241270	10.084797	0.176013	29.761055	-7.487560	0.000000	0.008269	-0.685510	1.911024	0.015356	-0.911728	2.030463	0.013585	-1.666749	2.030463	0.009450	-1.666749	1.672146	0.007678	-1.397892	1.552707	0.004725	-1.061855	1.433268	0.059063	-7.754625	10.628543	0.000000	0.000000	17.625628	8.427917	-9.481678	0.211211	-12.575587	-6.869588	123.040047	83.826052	-13.214836	15.399916	8.484477	-23.749169	35.667549	26.618004	73.454346	-17.497577	-4.394322
1.245614	-2.609559	-3.123729	83.186189	0.262743	0.917155	0.677280	9.166465	-3.719355	-5.754274	13.079814	0.228286	39.275617	13.535454	0.000000	6.505114	3.258710	-1.445817	9.868555	0.172239	29.041952	-8.784845	0.000000	0.009949	-0.661563	1.881748	0.018476	-0.879879	1.999357	0.016345	-1.608525	1.999357	0.011371	-1.608525	1.646529	0.009239	-1.349060	1.528920	0.005685	-1.024762	1.411311	0.071064	-7.483736	10.465715	0.000000	0.000000	17.480258	8.433939	-9.052069	1.916726	-13.103255	-7.176720	125.441296	83.126916	-12.541076	14.636506	7.554305	-23.945738	35.091522	27.122927	73.472597	-18.476903	-5.944067
1.263158	-2.533164	-3.094071	83.108812	0.262346	0.917487	0.676998	8.997239	-3.696324	-6.142690	12.789132	0.223212	39.156573	14.069688	0.000000	6.316559	3.295121	-0.574157	9.734317	0.169896	28.406843	-10.061432	0.000000	0.011233	-0.635974	1.834361	0.020861	-0.845845	1.949009	0.018455	-1.546307	1.949009	0.012838	-1.546307	1.605066	0.010431	-1.296878	1.490419	0.006419	-0.985123	1.375771	0.080238	-7.194262	10.202168	0.000000	0.000000	17.249867	8.493931	-8.490798	3.786083	-13.774189	-7.232806	127.384046	82.517941	-11.728785	13.640876	6.772692	-24.061748	34.877781	27.556312	73.222240	-19.634241	-7.466719
1.280702	-2.450064	-3.040327	83.031346	0.261874	0.917783	0.676770	8.858223	-3.669544	-6.485880	12.618539	0.220235	39.068219	14.514166	0.000000	6.149864	3.311972	0.166848	9.681821	0.168980	27.897300	-11.165426	0.000000	0.008391	-0.608473	1.769801	0.015582	-0.809268	1.880413	0.013785	-1.479440	1.880413	0.009590	-1.479440	1.548576	0.007792	-1.240797	1.437963	0.004794	-0.942524	1.327351	0.059933	-6.883163	9.843101	0.000000	0.000000	16.944629	8.641839	-7.701282	5.807220	-14.569710	-6.948707	128.923630	82.062359	-11.026397	12.582836	5.975121	-24.073214	34.092889	28.039945	73.686628	-20.870847	-8.700474
1.298246	-2.366587	-2.969505	83.021535	0.261266	0.918061	0.676554	8.743541	-3.657644	-6.848227	12.566219	0.219322	39.014438	14.865588	0.000000	6.007361	3.329547	0.874368	9.693755	0.169188	27.513542	-12.105140	0.000000	0.002358	-0.581150	1.691973	0.004379	-0.772929	1.797722	0.003874	-1.413007	1.797722	0.002695	-1.413007	1.480477	0.002190	-1.185080	1.374728	0.001347	-0.900201	1.268980	0.016843	-6.574079	9.410247	0.000000	0.000000	16.531446	8.814288	-6.871053	7.768962	-15.434656	-6.546580	130.188031	81.765990	-10.295530	11.472488	5.295234	-24.033474	33.419601	28.509824	74.243285	-22.141656	-9.724576
1.315789	-2.292095	-2.902169	83.041167	0.260605	0.918304	0.676342	8.694561	-3.654753	-7.147791	12.657628	0.220917	39.001112	15.068240	0.000000	5.913357	3.348051	1.491963	9.770541	0.170528	27.245851	-12.875042	0.000000	-0.003855	-0.557024	1.625242	-0.007158	-0.740842	1.726820	-0.006333	-1.354348	1.726820	-0.004405	-1.354348	1.422087	-0.003579	-1.135883	1.320509	-0.002203	-0.862830	1.218932	-0.027533	-6.301164	9.039111	0.000000	0.000000	16.015553	8.927589	-6.244009	9.461229	-16.301573	-6.202274	131.378914	81.750677	-9.540091	10.603722	4.796529	-23.942730	32.981024	28.913915	75.013769	-23.412040	-10.484052
1.333333	-2.235500	-2.819888	83.147822	0.259823	0.918527	0.676089	8.678917	-3.703896	-7.536645	12.892202	0.225011	39.060082	15.272753	0.000000	5.842082	3.383641	2.043324	9.897403	0.172742	27.109442	-13.416413	0.000000	-0.013024	-0.536314	1.551251	-0.024186	-0.713298	1.648204	-0.021397	-1.303994	1.648204	-0.014885	-1.303994	1.357344	-0.012094	-1.093652	1.260391	-0.007442	-0.830750	1.163438	-0.093027	-6.066892	8.627591	0.000000	0.000000	15.403370	9.016175	-5.653562	10.799261	-17.129392	-5.842225	132.537439	81.954943	-8.828416	9.824082	4.385524	-23.809929	32.580023	29.281317	76.069580	-24.686129	-10.965012
1.350877	-2.194418	-2.736799	83.286317	0.259041	0.918715	0.675802	8.727935	-3.755378	-7.780741	13.277029	0.231728	39.158005	15.224553	0.000000	5.805988	3.422956	2.455784	10.068785	0.175733	27.096644	-13.733281	0.000000	-0.022902	-0.520979	1.499735	-0.042531	-0.692902	1.593468	-0.037625	-1.266708	1.593468	-0.026174	-1.266708	1.312268	-0.021266	-1.062380	1.218535	-0.013086	-0.806996	1.124801	-0.163584	-5.893415	8.341076	0.000000	0.000000	14.710837	9.003540	-5.358407	11.605266	-17.829565	-5.667166	133.780628	82.357584	-8.012838	9.242383	4.138911	-23.622847	32.368829	29.513337	77.399386	-25.926032	-11.183589
1.368421	-2.174913	-2.642382	83.489441	0.258222	0.918861	0.675499	8.840673	-3.812575	-7.834716	13.833667	0.241443	39.295268	14.831118	0.000000	5.809636	3.469227	2.673286	10.311722	0.179973	27.226579	-13.737701	0.000000	-0.034881	-0.510448	1.459439	-0.064778	-0.678896	1.550654	-0.057307	-1.241103	1.550654	-0.039866	-1.241103	1.277010	-0.032391	-1.040906	1.185795	-0.019931	-0.790684	1.094580	-0.249155	-5.774290	8.116965	0.000000	0.000000	13.941346	8.875911	-5.246106	11.865310	-18.380934	-5.600918	135.120637	82.922458	-7.210125	8.810676	4.070823	-23.438429	32.633376	29.609437	78.567122	-27.019315	-11.204950
1.385965	-2.155835	-2.554520	83.754244	0.257371	0.918939	0.675152	9.015516	-3.865908	-7.819481	14.525044	0.253510	39.466960	14.246685	0.000000	5.845366	3.511134	2.822628	10.579292	0.184643	27.489843	-13.561160	0.000000	-0.046060	-0.502420	1.436754	-0.085538	-0.668218	1.526551	-0.075672	-1.221583	1.526551	-0.052642	-1.221583	1.257160	-0.042771	-1.024534	1.167363	-0.026319	-0.778248	1.077565	-0.329003	-5.683472	7.990794	0.000000	0.000000	13.114250	8.592834	-5.373449	11.525352	-18.723252	-5.723877	136.571536	83.608761	-6.431323	8.375163	4.130197	-23.208362	33.194891	29.541277	79.368383	-27.971385	-11.307908
